<svg width="184" height="43" viewBox="0 0 184 43" fill="none" xmlns="http://www.w3.org/2000/svg">
<path d="M45.548 11.9731C51.3996 11.9731 55.9082 14.7729 59.1793 20.4107C60.2824 22.6084 60.8388 25.0451 60.8388 27.6156V28.2558C60.5127 30.186 59.5534 31.1416 58.0281 31.1416H37.0296C37.586 33.024 39.1017 34.6293 41.5862 36.0053C43.0635 36.5596 44.4448 36.8749 45.7303 36.8749C47.2075 36.8749 49.0014 36.3207 51.1214 35.2696H51.9943C53.7402 35.5945 54.6227 36.55 54.6227 38.0693V38.3942C54.6227 40.6398 51.86 42.1113 46.2866 42.8471H45.5C40.0705 42.8471 35.6963 40.2767 32.3772 35.0976C31.0438 32.6705 30.4011 30.1 30.4011 27.434C30.4011 21.7962 33.0295 17.2956 38.2767 13.9511C40.8955 12.6133 43.2937 11.9731 45.548 11.9731ZM36.5212 25.2744H54.8434C54.8434 24.5864 54.0568 23.1627 52.5411 21.0509C50.4691 19.0347 48.397 18.0218 46.373 18.0218H45.2218C42.133 18.0218 39.6485 19.5316 37.6724 22.6084C36.9817 23.8507 36.6172 24.7202 36.5212 25.2744Z" fill="#3765AF"/>
<path d="M64.1004 12.2216C64.7143 11.9827 65.3954 12.0018 66.0093 12.2407C67.3331 12.7471 67.9758 13.5784 67.9758 14.6773V15.0882C70.1822 13.0242 73.1367 11.9731 76.9067 11.9731C81.0028 11.9731 84.6864 13.7122 87.8616 17.2478C90.1638 20.1813 91.315 23.3442 91.315 26.6027V40.1333C91.315 41.5571 90.3941 42.4267 88.6002 42.7898H88.322C86.5282 42.4649 85.6073 41.5093 85.6073 39.904V28.0265C85.6073 23.1149 83.5832 19.866 79.5255 18.3467C78.5087 18.0696 77.6357 17.9358 76.8971 17.9358H76.5709C73.1655 17.9358 70.5371 19.7705 68.6473 23.4398C68.1869 24.5387 67.9087 26.3256 67.9087 28.896V40.0378C67.9087 41.5476 66.9878 42.4649 65.1939 42.7898H65.0117C63.496 42.7898 62.5751 41.8247 62.249 39.904V15.2316C62.4312 13.6453 63.0452 12.6324 64.1004 12.2216Z" fill="#3765AF"/>
<path d="M120.189 0.410889H120.698C122.443 0.774 123.326 1.65311 123.326 2.98133V24.2616L123.422 27.8831C123.422 30.8644 122.223 33.9796 119.873 37.238C116.515 40.9551 112.736 42.8376 108.544 42.8376H107.719C103.622 42.8376 99.7949 40.8691 96.3032 36.9704C94.1352 33.8553 93.032 30.5969 93.032 27.2907C93.032 22.2453 95.2 18.0218 99.5743 14.5818C102.337 12.6993 105.234 11.7342 108.227 11.7342C112.093 11.7342 115.23 12.8331 117.666 15.0787V4.85422L117.618 3.88911C117.58 3.07689 117.762 2.27422 118.194 1.58622C118.693 0.793113 119.345 0.410889 120.189 0.410889ZM98.7781 26.9276V27.4818C98.7781 31.5142 100.85 34.4956 104.946 36.4736C106.001 36.7984 107.018 36.98 107.891 36.98H108.534C112.352 36.98 115.21 34.8682 117.187 30.6542C117.513 29.3738 117.647 28.4087 117.647 27.7207V27.0804C117.647 23.0862 115.575 20.0667 111.383 18.0887C110.098 17.7638 109.129 17.5822 108.438 17.5822H108.026C104.208 17.5822 101.349 19.6462 99.3729 23.822C98.9604 24.9496 98.7781 26.0102 98.7781 26.9276Z" fill="#3765AF"/>
<path d="M129.859 12.4318C131.748 12.8904 132.717 13.76 132.717 15.0022V39.5887C132.717 41.0602 131.748 41.9775 129.82 42.2451H129.638C128.074 42.2451 127.105 41.3278 126.741 39.4453V15.5469C126.952 13.4829 128.017 12.4318 129.859 12.4318Z" fill="#3765AF"/>
<path d="M143.758 0H144.219C145.926 0.410889 146.751 1.24222 146.751 2.61822V11.3807H149.975H150.895C152.123 11.3807 152.987 12.0304 153.485 13.5689C153.668 14.1327 153.677 14.7538 153.466 15.308C153.294 15.7667 152.987 16.1584 152.565 16.4833C151.97 16.942 151.222 17.1618 150.473 17.1618H149.658H146.799V32.1162C146.799 34.4573 147.394 35.8333 148.641 36.292L150.809 36.4736H151.912C153.246 36.4736 154.08 37.4387 154.397 39.3211V39.5982C154.071 41.4807 153.198 42.4458 151.682 42.4458H149.562C146.061 42.4458 143.442 40.3818 141.734 36.3016C141.408 35.2504 141.274 34.1038 141.274 32.766V17.2H140.123H138.377C137.111 16.7318 136.353 16.0629 136.094 15.0882C135.979 14.6487 135.979 14.19 136.075 13.7504C136.41 12.1738 136.986 11.3711 137.782 11.3711H139.672H141.284V3.16289C141.456 1.05111 142.291 0 143.758 0Z" fill="#3765AF"/>
<path d="M178.34 39.5791C176.134 41.7387 173.179 42.8376 169.496 42.8376H168.709C163.644 42.8376 159.452 40.2193 156.095 34.9924C154.848 32.4698 154.253 29.8993 154.253 27.3289C154.253 21.5955 156.968 17.0567 162.359 13.7027C164.661 12.6038 166.915 12.0018 169.131 12.0018C174.753 12.0018 179.165 14.8493 182.484 20.5349C183.501 22.876 184 25.2553 184 27.7398V40.076C184 41.5858 183.127 42.5031 181.333 42.828H181.151C179.904 42.828 178.983 42.0444 178.388 40.5347V40.2098L178.34 39.5791ZM159.874 27.1951V27.52C159.874 31.4187 161.764 34.3044 165.534 36.2824C166.685 36.7411 167.74 36.9704 168.709 36.9704H169.496C172.623 36.9704 175.156 35.3651 177.189 32.1067C177.928 30.5969 178.292 29.1253 178.292 27.7493V27.3384C178.292 23.6213 176.498 20.7355 172.949 18.7575C171.702 18.2033 170.465 17.888 169.131 17.888H169.035C165.256 17.888 162.407 19.952 160.469 24.0322C160.066 25.2744 159.874 26.3256 159.874 27.1951Z" fill="#3765AF"/>
<path d="M21.9691 34.3522L19.7819 40.2576C19.1488 42.0827 18.2854 43 16.7218 43H16.6259C14.88 43 13.9975 41.28 12.7888 38.1362C12.2996 36.8367 11.8199 35.5753 11.3499 34.3522H21.9691ZM32.7513 1.51933C32.2237 0.707107 31.4659 0.296219 30.4874 0.296219H30.3915C29.9982 0.296219 29.5953 0.401329 29.1828 0.611552C28.4346 0.984218 27.8686 1.64355 27.5712 2.42711L16.6739 31.39L13.7097 23.4684H7.28257C8.28981 26.1727 9.39297 29.1444 10.6017 32.3647H22.6981L33.0391 4.472C33.4036 3.49733 33.3173 2.39844 32.7513 1.51933ZM8.88455 10.6162L6.93723 5.38933C5.32565 1.60533 5.10502 0.047775 3.04258 0.296219C1.5557 0.496886 0.606021 1.05111 0.193533 1.95889C-0.0558781 2.51311 -0.0558781 3.14377 0.145569 3.71711C0.490908 4.70133 1.30629 7.02333 2.59172 10.6067H8.88455V10.6162ZM9.63279 12.5942H3.30158C4.2033 15.0882 5.27769 18.0504 6.54393 21.4904H12.9615L9.63279 12.5942Z" fill="#3765AF"/>
<path d="M129.715 10.9315C131.643 10.9315 133.206 9.37429 133.206 7.45332C133.206 5.53235 131.643 3.9751 129.715 3.9751C127.786 3.9751 126.223 5.53235 126.223 7.45332C126.223 9.37429 127.786 10.9315 129.715 10.9315Z" fill="#3765AF"/>
</svg>
