<svg width="24" height="24" viewBox="0 0 24 24" fill="none" xmlns="http://www.w3.org/2000/svg">
<path d="M17 17H7V7H17V17ZM21 11V9H19V7C19 5.89 18.1 5 17 5H15V3H13V5H11V3H9V5H7C5.89 5 5 5.89 5 7V9H3V11H5V13H3V15H5V17C5 17.5304 5.21071 18.0391 5.58579 18.4142C5.96086 18.7893 6.46957 19 7 19H9V21H11V19H13V21H15V19H17C17.5304 19 18.0391 18.7893 18.4142 18.4142C18.7893 18.0391 19 17.5304 19 17V15H21V13H19V11H21Z" fill="#0C326E" fill-opacity="0.38"/>
<path d="M13.8971 12.9257H15.3829V14.1714H13.7486L13.52 16H12.2286L12.4571 14.1714H10.7771L10.5486 16H9.26857L9.49714 14.1714H8V12.9257H9.64571L9.88571 11.0743H8.38857V9.82857H10.0343L10.2629 8H11.5429L11.3143 9.82857H12.9943L13.2229 8H14.5029L14.2743 9.82857H15.76L15.7714 11.0743H14.1257L13.8971 12.9257ZM12.6057 12.9257L12.8457 11.0743H11.1657L10.9257 12.9257H12.6057Z" fill="#0C326E" fill-opacity="0.38"/>
</svg>
