<svg width="48" height="48" viewBox="0 0 48 48" fill="none" xmlns="http://www.w3.org/2000/svg">
<path opacity="0.5" fill-rule="evenodd" clip-rule="evenodd" d="M18.9517 24.8046C19.0336 24.6411 19.3342 24.505 19.8261 24.396C20.318 24.2871 20.9465 24.2326 21.739 24.2053C22.5315 24.1781 23.4059 24.1781 24.417 24.2326C25.4008 24.2871 26.4665 24.3688 27.5869 24.4777C29.0626 24.6411 30.3742 24.8046 31.522 25.0225C32.6424 25.2404 33.5168 25.4583 34.118 25.6762C34.7192 25.9213 34.9651 26.1392 34.8558 26.3298C34.7465 26.466 34.4733 26.6022 33.954 26.7112C33.4622 26.8201 32.8336 26.8746 32.0685 26.9291C31.276 26.9563 30.4016 26.9835 29.4178 26.9563C28.434 26.9291 27.3956 26.8746 26.2752 26.7656C24.7996 26.6295 23.5152 26.466 22.3675 26.2481C21.2198 26.0302 20.3453 25.7851 19.7441 25.54C19.143 25.2676 18.8697 25.0225 18.9517 24.8046ZM16.1643 26.3571L12.8031 27.4738L17.2847 28.1547L20.8645 27.61C21.1925 27.6645 21.657 27.7462 22.2309 27.7734C22.8321 27.8279 23.4879 27.8824 24.2257 27.9369C24.9635 27.9913 25.7287 28.0458 26.5212 28.073C27.3136 28.1003 28.0788 28.1275 28.8166 28.1275C29.5544 28.1547 30.2103 28.1547 30.7841 28.1275C31.7406 28.1003 32.6697 28.0458 33.6261 27.9913C34.5826 27.9096 35.4297 27.8279 36.1948 27.6917C36.96 27.5555 37.5612 27.3921 37.9711 27.2014C38.381 26.9835 38.5176 26.7384 38.381 26.4388C38.2717 26.1392 37.7798 25.7851 36.9327 25.3765C38.5176 25.6762 39.5834 26.0302 40.1299 26.4116C40.6764 26.7929 40.6764 27.1742 40.1572 27.5555C39.638 27.9369 38.5723 28.2365 36.96 28.4816L40.4305 29.5166L42.6713 28.9991L40.895 28.2365C41.7695 28.1003 42.4527 27.9641 42.9992 27.7734L46.4424 28.0186L47.1255 27.5828L44.1196 27.1197C44.2016 26.9835 44.1742 26.8201 44.0649 26.6839L46.6063 26.575L45.7045 26.1937L43.0538 26.0302C42.6713 25.8668 42.1794 25.6762 41.6329 25.5127L42.6713 25.2676L41.3049 24.9407L39.2281 24.8863C38.4083 24.6956 37.5338 24.5322 36.5228 24.3415L36.5774 24.0419L34.2546 23.6606L33.4348 23.8785C32.7243 23.7695 31.9865 23.6606 31.2214 23.5789C30.9481 23.5516 30.7022 23.5244 30.4562 23.4972L29.3358 23.0069L26.3572 22.68L25.9746 22.9797C25.8927 22.9797 25.7833 22.9524 25.7014 22.9524C24.8269 22.8979 23.9798 22.8435 23.16 22.8162L20.5366 22.0264L17.7766 22.0536L18.9517 22.8435C18.2685 22.8707 17.64 22.9252 17.0661 22.9797L13.5956 22.3804L11.3002 22.789L14.2788 23.6878C14.0602 23.7968 13.8962 23.933 13.7869 24.0692C13.7596 24.0964 13.7323 24.1509 13.7049 24.2053L9.57859 24.3688L9.49661 25.2404L14.4154 25.4855C14.8253 25.7851 15.3992 26.0847 16.1643 26.3571ZM0.0142311 24.4505C-0.0677491 24.9135 0.205518 25.3765 0.806707 25.8396C1.4079 26.2754 2.30968 26.7112 3.48473 27.0925C4.65978 27.4738 6.05344 27.8279 7.69305 28.1275C9.33265 28.4271 11.1635 28.6995 13.1311 28.8902C15.1259 29.0808 17.2301 29.217 19.4709 29.2715C21.575 29.2987 23.6245 29.2987 25.5647 29.2442C27.5049 29.1625 29.3358 29.0536 31.0301 28.9174C32.7243 28.754 34.2273 28.5905 35.5663 28.3454C36.9053 28.1275 37.9984 27.8824 38.8729 27.6372C37.9984 27.8551 36.9327 28.073 35.6756 28.2365C34.4186 28.3999 32.9703 28.5361 31.3853 28.645C29.8004 28.754 28.1334 28.8084 26.3026 28.8357C24.499 28.8629 22.6134 28.8357 20.6732 28.7812C18.0226 28.645 15.5905 28.4271 13.377 28.1003C11.1362 27.7734 9.19602 27.3921 7.52909 26.9563C5.88948 26.5205 4.63245 26.0302 3.75799 25.4855C2.91087 24.968 2.52829 24.4505 2.66492 23.9057C2.77423 23.5516 3.07483 23.252 3.62136 22.9797C4.14057 22.7073 4.85106 22.4622 5.75285 22.2715C6.65463 22.0808 7.69305 21.9446 8.8681 21.8357C7.14651 21.9446 5.61621 22.1081 4.33186 22.3532C3.0475 22.5983 2.00908 22.8979 1.27126 23.252C0.533439 23.6061 0.123538 23.9874 0.0142311 24.4505ZM1.87245 27.8551C3.37542 28.3726 5.12433 28.8084 7.14651 29.1353C9.16869 29.4621 11.3548 29.7073 13.7323 29.8707C16.1097 30.0069 18.5418 30.0886 21.0831 30.0341C23.5972 30.0069 26.1113 29.9252 28.6253 29.7345C31.1121 29.5439 33.5168 29.2987 35.7849 28.9446C34.8558 29.1898 33.6261 29.4077 32.0958 29.6528C30.5655 29.8979 28.8439 30.1158 26.9311 30.3065C24.9909 30.4972 22.9687 30.6606 20.8372 30.7695C18.7057 30.8785 16.5742 30.933 14.4428 30.9057C12.3113 30.9057 10.2891 30.7968 8.32156 30.6061C6.38136 30.4154 4.63245 30.1431 3.07483 29.7617L1.87245 27.8551Z" fill="white"/>
<path fill-rule="evenodd" clip-rule="evenodd" d="M22.9413 11.9757C23.1326 11.5943 23.4878 11.2947 24.007 11.1313C24.5262 10.9679 25.1547 10.8862 25.9472 10.9406C26.7124 10.9951 27.5595 11.1313 28.4613 11.4037C29.3904 11.6488 30.3195 12.0029 31.3033 12.4659C32.6149 13.0924 33.708 13.8006 34.6371 14.536C35.5662 15.2986 36.2494 16.034 36.6593 16.7694C37.0965 17.4776 37.1785 18.1041 36.9599 18.6488C36.7686 19.0301 36.4134 19.3297 35.8668 19.4932C35.3476 19.6566 34.6918 19.7111 33.954 19.6566C33.1888 19.6021 32.3417 19.4659 31.4399 19.2208C30.5381 18.9757 29.5817 18.6216 28.5979 18.1313C27.2862 17.5048 26.1658 16.8239 25.264 16.0613C24.3349 15.2986 23.6518 14.5632 23.2419 13.855C22.832 13.1469 22.7227 12.5204 22.9413 11.9757ZM19.3341 15.2169L15.4811 17.0963L19.3068 19.6021L22.9686 19.1391C23.3239 19.4115 23.8431 19.7383 24.5536 20.1196C25.264 20.4737 26.0565 20.855 26.931 21.2364C27.8054 21.5904 28.7072 21.9173 29.5817 22.1897C30.4561 22.462 31.2486 22.6799 31.9318 22.7889C32.8336 22.9251 33.7627 23.0068 34.7191 23.0613C35.6482 23.0885 36.5227 22.9795 37.3425 22.7889C38.1623 22.5982 38.8181 22.2441 39.3373 21.7539C39.8565 21.2636 40.1571 20.5554 40.2391 19.6838C40.3211 18.785 40.1025 17.6683 39.5833 16.3064C40.567 17.178 41.2502 18.0496 41.6328 18.9757C42.0153 19.9017 42.1247 20.7733 41.9334 21.6177C41.7421 22.462 41.3048 23.1974 40.567 23.8239C39.8292 24.4504 38.8454 24.8862 37.5884 25.1858L40.1845 29.0262L42.6165 28.1819L41.4688 25.4037C42.3706 25.2402 43.1357 24.9406 43.7643 24.5593L46.8249 26.1663L47.754 24.9679L45.2672 22.8161C45.4312 22.3803 45.5132 21.9173 45.5132 21.4543L47.9999 21.6177L47.426 20.2013L45.0486 19.2208C44.8027 18.6216 44.4748 18.0224 44.0375 17.4231L45.1033 16.7967L44.0375 15.6255L42.0973 15.1352C41.4415 14.4815 40.731 13.8278 39.9112 13.2013L40.1571 12.2753L38.2169 10.9406L37.2878 11.4037C36.6866 11.0224 36.0308 10.6683 35.4023 10.3414C35.1563 10.2052 34.9377 10.0963 34.7464 9.98734L33.9813 8.54377L31.3579 7.3998L30.7567 8.40758C30.6747 8.38034 30.5928 8.35311 30.5108 8.32587C29.7183 8.08073 28.9532 7.89007 28.188 7.72665L26.1658 5.54766L23.5151 5.27529L24.1437 7.26361C23.4605 7.26361 22.832 7.31809 22.2581 7.3998L19.3341 5.62937L16.9021 6.31031L19.1702 8.73443C18.8969 8.95233 18.6783 9.2247 18.4597 9.55155C18.405 9.63326 18.3504 9.71497 18.3231 9.79668L14.306 9.55155L13.6775 11.5126L18.1864 12.9017C18.4324 13.6099 18.8149 14.3998 19.3341 15.2169ZM5.23354 8.18968C4.79631 9.38812 4.87829 10.6683 5.45215 12.0029C6.02602 13.3375 7.00978 14.6994 8.43077 16.034C9.85176 17.3414 11.6007 18.5943 13.6775 19.7655C15.7543 20.9367 18.0771 21.9445 20.6732 22.7889C22.6407 23.4153 24.5536 23.9056 26.4391 24.2052C28.3246 24.5321 30.1009 24.6955 31.7951 24.7227C33.4621 24.7227 35.0197 24.6138 36.386 24.3414C37.7797 24.069 38.9548 23.6605 39.9658 23.0885C39.0094 23.5243 37.8617 23.8511 36.55 24.0146C35.2656 24.2052 33.8446 24.2325 32.287 24.1235C30.7294 24.0146 29.1171 23.7967 27.3955 23.4153C25.6739 23.034 23.925 22.5165 22.1488 21.8356C19.744 20.9095 17.5852 19.8472 15.6724 18.6488C13.7595 17.4504 12.1472 16.1975 10.8629 14.8901C9.57849 13.5554 8.70404 12.248 8.18483 10.9679C7.69295 9.68773 7.66562 8.48929 8.10285 7.3998C8.40344 6.69163 8.89532 6.09241 9.52384 5.5749C10.1797 5.05739 10.9995 4.64883 11.9559 4.34922C12.9124 4.04961 14.0054 3.85895 15.1805 3.75C13.4862 3.77724 11.9286 3.9679 10.5623 4.32198C9.19592 4.67607 8.0482 5.16634 7.11909 5.7928C6.24463 6.47373 5.58879 7.26361 5.23354 8.18968ZM4.96027 15.571C6.05334 17.0418 7.44701 18.4037 9.14127 19.6294C10.8355 20.855 12.7484 21.9173 14.9072 22.8434C17.0387 23.7694 19.3068 24.5321 21.6842 25.1041C24.0617 25.676 26.4938 26.0846 28.9532 26.248C31.4126 26.4387 33.8173 26.4114 36.1674 26.1663C35.293 26.4932 34.1999 26.7383 32.9155 26.929C31.6312 27.1196 30.1829 27.2013 28.5979 27.2286C27.013 27.2558 25.346 27.1741 23.6244 27.0107C21.8755 26.8745 20.1266 26.6021 18.3777 26.248C16.6288 25.8939 14.9072 25.4037 13.2676 24.8317C11.628 24.2325 10.0977 23.5243 8.64938 22.7072C7.22839 21.89 6.02602 20.9095 4.9876 19.82V15.571" fill="white"/>
<path d="M17.8588 34.4465C17.8588 34.2286 17.8041 34.0651 17.6675 33.9017C17.5308 33.7383 17.3942 33.6293 17.1756 33.5749C16.9843 33.5204 16.7657 33.5476 16.6017 33.6021C16.4104 33.6838 16.2738 33.7928 16.1645 33.9834L12.0655 41.0924L7.96647 33.9834C7.91182 33.9017 7.85717 33.82 7.77519 33.7655C7.69321 33.711 7.61123 33.6566 7.52925 33.6293C7.44727 33.6021 7.33796 33.5749 7.25598 33.5749C7.14667 33.5749 7.06469 33.5749 6.95539 33.6021C6.7641 33.6566 6.60014 33.7655 6.4635 33.9289C6.3542 34.0924 6.27222 34.283 6.27222 34.4737V43.6254H8.07578V37.7149L11.3003 43.3258C11.3823 43.462 11.4916 43.5709 11.6283 43.6527C11.7649 43.7344 11.9015 43.7616 12.0655 43.7616C12.2294 43.7616 12.3661 43.7344 12.53 43.6527C12.6667 43.5709 12.776 43.462 12.858 43.3258L16.0552 37.7149V43.6254H17.8861V34.4465H17.8588ZM29.7186 34.5826C29.7186 34.4465 29.6912 34.3375 29.6366 34.2286C29.5819 34.1196 29.5273 34.0107 29.4453 33.9289C29.3633 33.8472 29.254 33.7928 29.1447 33.7383C29.0354 33.6838 28.9261 33.6566 28.7894 33.6566H24.7451C24.0346 33.6566 23.3788 33.7655 22.7502 34.0107C22.1491 34.2558 21.6298 34.6099 21.1653 35.0457C20.7281 35.4815 20.3728 35.999 20.1269 36.6254C19.8809 37.2247 19.7443 37.9056 19.7443 38.6138V43.5709H21.5479V41.1468H27.8877V43.5709H29.6912V34.5826H29.7186ZM21.5752 38.641C21.5752 38.1507 21.6572 37.7149 21.7938 37.3608C21.9304 37.0068 22.1217 36.7071 22.3403 36.4893C22.559 36.2441 22.8049 36.0807 23.0508 35.9445C23.2968 35.8083 23.5427 35.6994 23.7887 35.6449C24.0346 35.5904 24.2259 35.5359 24.4172 35.5359C24.6085 35.5087 24.7178 35.5087 24.7724 35.5087H27.9423V39.4036H21.5752V38.641ZM41.2504 39.7305C41.1685 39.4581 41.0318 39.213 40.8952 38.9951C40.7312 38.7772 40.5673 38.5865 40.376 38.4503C40.1847 38.2869 39.9661 38.178 39.7748 38.069C39.5562 37.9601 39.3376 37.9056 39.119 37.8511C38.9003 37.7966 38.7091 37.7694 38.4904 37.7694H38.4631H34.3095C33.9542 37.7694 33.7083 37.6605 33.517 37.4698C33.3257 37.2791 33.2164 37.0068 33.2164 36.6527C33.2164 36.2986 33.3257 36.0262 33.517 35.8356C33.7083 35.6177 33.9815 35.5359 34.3095 35.5359H40.458V33.6838H34.3095C34.0089 33.6838 33.7083 33.7383 33.353 33.8472C33.0251 33.9562 32.6972 34.1196 32.4239 34.3647C32.1233 34.6099 31.9047 34.9095 31.7134 35.2636C31.5221 35.6449 31.4128 36.0807 31.4128 36.6254C31.4128 37.1702 31.5221 37.6332 31.7134 37.9873C31.9047 38.3686 32.1506 38.6682 32.4239 38.8861C32.7245 39.104 33.0251 39.2947 33.353 39.3764C33.6809 39.4854 34.0089 39.5398 34.3095 39.5398H38.4631C38.6271 39.5398 38.791 39.5671 38.9277 39.6215C39.0643 39.676 39.1736 39.7577 39.2829 39.8667C39.3649 39.9756 39.4469 40.0846 39.5015 40.2208C39.5562 40.3569 39.5835 40.5204 39.5835 40.6838C39.5835 41.0379 39.4742 41.3103 39.2829 41.5009C39.0916 41.6916 38.8184 41.8005 38.4631 41.8005H31.4948V43.5982H38.4631C38.6544 43.5982 38.873 43.5709 39.0916 43.5165C39.3102 43.462 39.5289 43.4075 39.7475 43.2986C39.9661 43.1896 40.1574 43.0807 40.376 42.9173C40.5673 42.7538 40.7586 42.5904 40.8952 42.3725C41.0318 42.1546 41.1685 41.9095 41.2504 41.6099C41.3324 41.3103 41.3871 41.0106 41.3871 40.6566C41.3871 40.3297 41.3324 40.0029 41.2504 39.7305Z" fill="white"/>
</svg>
