<svg width="72" height="17" viewBox="0 0 72 17" fill="none" xmlns="http://www.w3.org/2000/svg">
<path d="M17.8338 4.72473C20.1291 4.72473 21.8844 5.83245 23.1671 8.04787C23.5947 8.90691 23.8197 9.87899 23.8197 10.8963C23.8197 11.1223 23.7972 11.371 23.7072 11.5745C23.5272 12.0492 23.1896 12.2753 22.7171 12.2753H14.5032C14.7283 13.0213 15.3134 13.6543 16.281 14.1968C16.8661 14.4229 17.4062 14.5359 17.9013 14.5359C18.4189 14.5359 19.0265 14.3551 19.7241 14.0386C19.9266 13.9481 20.1967 13.9029 20.3317 13.9029C20.8718 13.9255 21.3668 14.4003 21.3668 15.0106V15.1463C21.3668 16.0279 20.2867 16.6157 18.1038 16.9096H17.7888C15.6734 16.9096 13.9407 15.8923 12.6579 13.8577C12.1404 12.9082 11.8928 11.891 11.8928 10.8285C11.8928 8.61303 12.928 6.82713 14.9758 5.51596C16.011 4.9734 16.9561 4.72473 17.8338 4.72473ZM14.3007 9.96941H21.4794C21.4794 9.96941 21.2093 9.2008 20.8943 8.72606C20.6017 8.29654 20.2417 7.93484 19.8141 7.66356C18.959 7.0984 17.8788 6.94016 16.8886 7.21144C16.2585 7.39229 15.6959 7.75399 15.2459 8.22872C15.0208 8.47739 14.8408 8.74867 14.6833 9.04255C14.5257 9.31383 14.3682 9.58511 14.3007 9.9016C14.3007 9.94681 14.3007 9.96941 14.3007 9.96941ZM24.4273 5.6742C24.3823 5.85505 24.3598 6.05851 24.3598 6.26197V15.8471C24.3598 15.8471 24.3598 16.9096 25.4625 16.9096C26.5427 16.9096 26.5652 15.8471 26.5652 15.8471V11.3936C26.5652 10.3763 26.6777 9.67553 26.8577 9.24601C27.6004 7.7992 28.6355 7.0758 29.9632 7.0758H30.0982C30.3908 7.0758 30.7284 7.12101 31.1334 7.23404C32.7312 7.84442 33.5188 9.11037 33.5188 11.0545V15.8245C33.5188 15.8245 33.5863 16.887 34.644 16.887C35.7692 16.887 35.7692 15.8245 35.7692 15.8245V10.4894C35.7692 9.2008 35.3191 7.95745 34.4189 6.80452C33.1812 5.40293 31.741 4.72473 30.1208 4.72473C28.6355 4.72473 27.4878 5.13165 26.6327 5.94548V5.78723C26.6327 5.35771 26.4527 4.9734 25.9801 4.79255C25.7326 4.70213 25.35 4.72473 25.1024 4.81516C24.7649 4.9508 24.5399 5.24468 24.4273 5.6742ZM47.1785 0.180851C48.3037 0.180851 48.3037 1.17553 48.3037 1.17553V9.58511V11.0093C48.3037 12.1848 47.8311 13.4056 46.9085 14.6941C45.6032 16.1636 44.118 16.9096 42.4752 16.9096H42.1602C40.5624 16.9096 39.0547 16.141 37.682 14.6037C36.8268 13.383 36.3993 12.0944 36.3993 10.7832C36.3993 8.79388 37.2544 7.12101 38.9647 5.76463C40.0449 5.01862 41.17 4.63431 42.3402 4.63431C43.848 4.63431 45.0857 5.06383 46.0308 5.94548V1.17553C46.0533 1.17553 46.1208 0.180851 47.1785 0.180851ZM38.6721 10.625V10.8511C38.6721 12.4335 39.4823 13.609 41.08 14.4003C41.4851 14.5359 41.8902 14.6037 42.2277 14.6037H42.4752C43.9605 14.6037 45.0857 13.7673 45.8508 12.117C45.9858 11.6197 46.0308 11.2354 46.0308 10.9641V10.7154C46.0308 9.47208 45.5132 8.45479 44.4781 7.70878C43.938 7.32447 43.3304 7.0758 42.6778 6.98537C42.5878 6.96277 42.4977 6.96277 42.4302 6.96277H42.2727C40.7875 6.96277 39.6623 7.7766 38.8972 9.42686C38.7396 9.85638 38.6721 10.2633 38.6721 10.625ZM49.6089 5.92287V15.621C49.6089 15.621 49.6089 16.6609 50.7791 16.6609C51.9493 16.6609 51.9493 15.621 51.9493 15.621V5.92287C51.9493 5.92287 51.9493 4.90559 50.7791 4.90559C49.6089 4.90559 49.6089 5.92287 49.6089 5.92287ZM55.3023 1.26596V4.49867H54.2671C54.2671 4.49867 53.187 4.52128 53.187 5.6516C53.187 6.82713 54.2671 6.80452 54.2671 6.80452H55.3023V12.9535V13.383C55.3023 14.4003 55.7074 15.3723 56.4725 16.0279C57.0576 16.5253 57.7777 16.7739 58.5428 16.7739H59.4205C59.4205 16.7739 60.5682 16.7739 60.5682 15.5984C60.5682 14.4681 59.4205 14.4229 59.4205 14.4229L58.3403 14.3551C58.2278 14.3551 58.1153 14.3098 58.0252 14.2646C57.6652 14.016 57.4852 13.5186 57.4852 12.7048V6.78192H59.0154C59.0154 6.78192 60.1856 6.82713 60.1856 5.6516C60.1856 4.49867 59.0154 4.52128 59.0154 4.52128H57.4852V1.26596C57.4852 1.26596 57.4852 0 56.405 0C55.2798 0 55.3023 1.26596 55.3023 1.26596ZM69.8171 15.621C68.962 16.4801 67.7693 16.9096 66.3291 16.9096H66.014C64.0337 16.9096 62.3909 15.8697 61.0857 13.8125C60.5907 12.8178 60.3656 11.8005 60.3656 10.7832C60.3656 8.52261 61.4233 6.7367 63.5386 5.40293C64.4388 4.9734 65.3164 4.72473 66.1941 4.72473C68.3994 4.72473 70.1322 5.85505 71.4149 8.09309C71.82 9.01995 72 9.94681 72 10.9415V15.9827C72 15.9827 72 17 70.8973 17C69.7946 17 69.7946 15.9827 69.7946 15.9827V15.621H69.8171ZM62.571 10.738V10.8511C62.571 12.3883 63.3136 13.5186 64.7763 14.3098C65.2264 14.4907 65.6315 14.5811 66.014 14.5811H66.3291C67.5443 14.5811 68.5344 13.9481 69.3446 12.6596C69.6371 12.0718 69.7721 11.484 69.7721 10.9415V10.7832C69.7721 9.31383 69.0745 8.18351 67.6793 7.39229C67.1842 7.16622 66.7116 7.05319 66.1941 7.05319H66.1491C64.6638 7.05319 63.5611 7.86702 62.796 9.47208C62.6385 9.96942 62.571 10.3989 62.571 10.738ZM4.44412 13.5638C4.62415 14.0386 5.25425 15.8923 5.25425 15.8923C5.25425 15.8923 5.63681 16.9774 6.49195 16.9774C7.36959 16.9774 7.72965 15.8923 7.72965 15.8923L8.60729 13.5638H4.44412ZM12.8155 0.610372C12.6129 0.271277 12.3204 0.113032 11.9378 0.113032H11.8928C11.7353 0.113032 11.5778 0.158245 11.4202 0.24867C11.1277 0.406915 10.9027 0.655585 10.7901 0.972075L6.53696 12.3883L5.36677 9.26862H2.84636C3.25143 10.3311 3.679 11.5066 4.15157 12.7726H8.87734L12.928 1.7633C13.0855 1.37899 13.0405 0.949468 12.8155 0.610372ZM3.47647 4.18218L2.71134 2.125C2.41879 1.44681 2.26127 0.972075 2.08124 0.632979C1.8562 0.226064 1.27111 -0.203457 0.573498 0.158245C-0.101611 0.49734 -0.0341001 1.24335 0.0559144 1.46941C0.190936 1.85372 0.505987 2.78059 1.02357 4.18218H3.47647ZM3.76901 4.9734H1.29361C1.65367 5.96809 2.05874 7.12101 2.55382 8.47739H5.07422L3.76901 4.9734ZM50.7791 4.31782C51.5442 4.31782 52.1518 3.70745 52.1518 2.93883C52.1518 2.17021 51.5442 1.55984 50.7791 1.55984C50.014 1.55984 49.4064 2.17021 49.4064 2.93883C49.4064 3.70745 50.014 4.31782 50.7791 4.31782Z" fill="#F9FAFB"/>
</svg>
