<svg width="629" height="408" viewBox="0 0 629 408" fill="none" xmlns="http://www.w3.org/2000/svg">
<path opacity="0.1" d="M355.306 59.0478C315.014 59.1016 276.284 47.6819 239.224 35.0233C202.163 22.3646 165.372 8.14384 125.834 2.11078C100.409 -1.76762 71.5368 -1.39055 51.66 12.6686C32.5374 26.1353 26.9891 48.5438 24.3496 69.1747C22.3566 84.7421 21.387 101.01 28.9283 115.231C34.1534 125.088 43.0952 133.222 49.3976 142.649C71.3752 175.346 58.1779 217.146 36.7928 250.651C26.7736 266.38 15.0307 281.409 7.43552 298C-0.159666 314.591 -3.23006 333.444 4.47286 349.82C12.1219 366.087 29.4131 377.83 47.9971 385.91C85.7037 402.286 129.605 405.787 172.321 407.188C266.911 410.204 361.662 404.063 456.144 397.923C491.104 395.66 526.225 393.398 560.484 386.826C579.499 383.163 599.106 377.777 612.573 365.98C629.702 350.951 633.204 326.442 620.761 308.827C599.86 279.254 544.809 273.706 529.834 241.709C521.592 224.095 528.703 203.895 539.207 186.927C561.723 150.513 600.399 117.87 601.099 77.147C601.53 49.1902 581.384 21.8798 551.327 9.70597C519.761 -3.00655 476.775 0.279311 454.69 23.9806C431.958 48.4361 390.858 58.9939 355.306 59.0478Z" fill="#4587D4"/>
<path d="M534.628 347.665C534.628 347.665 528.002 343.302 521.431 346.426C521.431 346.426 523.478 350.305 531.773 349.927L534.628 347.665Z" fill="#4587D4"/>
<path d="M535.49 347.88C535.49 347.88 537.483 355.53 532.473 360.755C532.473 360.755 529.457 357.576 532.473 349.874L535.49 347.88Z" fill="#4587D4"/>
<path d="M543.731 340.501C543.731 340.501 543.247 333.983 528.487 336.138C528.487 336.138 528.433 340.339 533.604 342.332C538.776 344.325 541.146 342.655 543.731 340.501Z" fill="#4587D4"/>
<path d="M544.647 340.447C544.647 340.447 550.896 342.44 545.294 356.284C545.294 356.284 541.2 355.368 540.446 349.874C539.691 344.379 541.9 342.494 544.647 340.447Z" fill="#4587D4"/>
<path d="M552.943 331.236C552.943 331.236 553.804 320.516 538.722 321.594C538.722 321.594 537.644 331.29 550.249 333.821L552.943 331.236Z" fill="#4587D4"/>
<path d="M562.908 319.116C562.908 319.116 560.861 306.942 545.778 310.551C545.778 310.551 545.725 321.055 560.43 321.971L562.908 319.116Z" fill="#4587D4"/>
<path d="M570.18 306.565C570.18 306.565 566.732 294.714 551.811 298.269C551.811 298.269 555.367 308.935 569.21 308.773L570.18 306.565Z" fill="#4587D4"/>
<path d="M577.075 294.337C577.075 294.337 573.681 282.055 559.299 285.718C559.299 285.718 564.093 297.407 576.105 296.438L577.075 294.337Z" fill="#4587D4"/>
<path d="M581.546 282.702C581.546 282.702 578.96 267.673 565.547 271.013C565.547 271.013 569.426 284.695 580.576 284.91L581.546 282.702Z" fill="#4587D4"/>
<path d="M585.694 268.643C585.694 268.643 582.569 253.506 568.995 257.869C568.995 257.869 574.328 272.198 584.724 270.69L585.694 268.643Z" fill="#4587D4"/>
<path d="M588.279 255.607C588.279 255.607 583.323 240.47 572.819 240.848C572.819 240.848 577.883 256.846 587.417 258.624L588.279 255.607Z" fill="#4587D4"/>
<path d="M589.949 242.841C589.949 242.841 584.562 224.58 575.998 225.98C575.998 225.98 579.714 239.932 589.626 245.642L589.949 242.841Z" fill="#4587D4"/>
<path d="M590.865 227.596C590.865 227.596 585.801 212.406 577.398 211.76C577.398 211.76 580.845 226.735 590.703 231.529L590.865 227.596Z" fill="#4587D4"/>
<path d="M591.888 213.429C591.888 213.429 585.586 198.185 580.038 197.862C580.038 197.862 582.785 212.837 591.35 215.907L591.888 213.429Z" fill="#4587D4"/>
<path d="M592.588 200.232C592.588 200.232 588.71 183.695 583.162 182.348C583.162 182.348 583.916 195.869 592.05 201.471L592.588 200.232Z" fill="#4587D4"/>
<path d="M594.689 182.887C594.689 182.887 590.595 169.69 586.124 167.697C586.124 167.697 587.04 183.264 593.666 186.119L594.689 182.887Z" fill="#4587D4"/>
<path d="M596.413 171.575L597.221 148.359C597.221 148.359 588.764 165.865 595.767 175.669L596.413 171.575Z" fill="#4587D4"/>
<path d="M602.931 148.466C602.931 148.466 609.018 131.498 610.472 130.529C610.472 130.529 598.568 141.518 599.753 155.684L602.931 148.466Z" fill="#4587D4"/>
<path d="M553.374 331.128C553.374 331.128 564.039 329.727 563.716 344.81C563.716 344.81 554.074 346.372 550.896 333.929L553.374 331.128Z" fill="#4587D4"/>
<path d="M563.393 318.685C563.393 318.685 575.728 318.631 574.705 334.091C574.705 334.091 564.362 335.922 560.915 321.594L563.393 318.685Z" fill="#4587D4"/>
<path d="M570.288 307.588C570.288 307.588 581.492 302.309 588.656 315.884C588.656 315.884 578.314 320.247 569.318 309.797L570.288 307.588Z" fill="#4587D4"/>
<path d="M577.344 294.445C577.344 294.445 588.818 288.843 595.551 302.094C595.551 302.094 583.593 306.188 576.375 296.546L577.344 294.445Z" fill="#4587D4"/>
<path d="M581.384 283.025C581.384 283.025 592.427 272.467 601.207 283.133C601.207 283.133 589.949 291.805 580.846 285.341L581.384 283.025Z" fill="#4587D4"/>
<path d="M585.101 268.32C585.101 268.32 596.197 257.546 604.924 268.804C604.924 268.804 592.481 277.638 584.67 270.582L585.101 268.32Z" fill="#4587D4"/>
<path d="M587.148 255.176C587.148 255.176 595.713 241.709 605.786 244.726C605.786 244.726 596.898 259.001 587.256 258.354L587.148 255.176Z" fill="#4587D4"/>
<path d="M589.68 242.733C589.68 242.733 598.298 225.765 606.432 228.728C606.432 228.728 600.238 241.763 589.41 245.588L589.68 242.733Z" fill="#4587D4"/>
<path d="M590.272 226.735C590.272 226.735 599.106 213.376 607.456 214.992C607.456 214.992 600.238 228.512 589.41 230.559L590.272 226.735Z" fill="#4587D4"/>
<path d="M590.972 213.106C590.972 213.106 597.867 198.131 603.416 198.024C603.416 198.024 600.13 212.891 591.457 215.638L590.972 213.106Z" fill="#4587D4"/>
<path d="M592.319 199.909C592.319 199.909 599.968 184.719 605.678 184.719C605.678 184.719 601.8 197.7 592.588 201.256L592.319 199.909Z" fill="#4587D4"/>
<path d="M593.45 183.857C593.45 183.857 599.16 171.306 603.9 169.905C603.9 169.905 601.046 185.203 594.097 187.196L593.45 183.857Z" fill="#4587D4"/>
<path d="M597.113 171.144L609.88 151.698C609.88 151.698 606.594 170.875 595.228 174.861L597.113 171.144Z" fill="#4587D4"/>
<path d="M605.84 150.028C605.84 150.028 620.653 139.794 621.192 138.124C621.192 138.124 613.65 152.452 599.645 154.984L605.84 150.028Z" fill="#4587D4"/>
<path d="M606.755 145.45C606.755 145.45 623.777 129.074 628.14 129.074C628.14 129.074 614.081 129.721 606.378 144.534L606.755 145.45Z" fill="#4587D4"/>
<path d="M593.612 186.281L594.258 186.335C597.436 161.287 602.123 146.473 607.402 144.642L607.186 144.049C601.584 146.042 596.898 160.64 593.612 186.281Z" fill="#444053"/>
<path d="M588.926 246.18L589.841 246.234C590.057 243.918 590.218 241.494 590.272 239.124C591.188 218.385 592.535 199.37 594.366 185.096L593.827 184.449C591.996 198.724 590.218 218.385 589.356 239.124C589.249 241.494 589.141 243.864 588.926 246.18Z" fill="#444053"/>
<path d="M517.175 359.57C517.337 359.516 533.82 352.136 550.95 334.575C560.969 324.287 569.318 312.49 575.674 299.562C583.593 283.456 588.441 263.633 590.057 244.403L589.087 244.888C585.424 288.089 565.763 317.607 550.142 333.66C533.174 351.059 516.852 358.385 516.69 358.438L517.175 359.57Z" fill="#444053"/>
<path d="M559.891 45.9043H42.2872C39.7555 45.9043 37.6547 47.9513 37.6547 50.5369V63.9496H564.47V50.5369C564.524 48.0051 562.423 45.9043 559.891 45.9043Z" fill="#3F3D56"/>
<path d="M37.7086 63.9496V366.303C37.7086 371.42 41.8563 375.622 47.0275 375.622H555.259C560.376 375.622 564.578 371.474 564.578 366.303V63.9496H37.7086Z" fill="white"/>
<path opacity="0.8" d="M46.004 56.947C47.194 56.947 48.1587 55.9823 48.1587 54.7923C48.1587 53.6023 47.194 52.6376 46.004 52.6376C44.814 52.6376 43.8494 53.6023 43.8494 54.7923C43.8494 55.9823 44.814 56.947 46.004 56.947Z" fill="#FA5959"/>
<path opacity="0.8" d="M51.9294 56.947C53.1193 56.947 54.084 55.9823 54.084 54.7923C54.084 53.6023 53.1193 52.6376 51.9294 52.6376C50.7394 52.6376 49.7747 53.6023 49.7747 54.7923C49.7747 55.9823 50.7394 56.947 51.9294 56.947Z" fill="#FED253"/>
<path opacity="0.8" d="M57.8547 56.947C59.0447 56.947 60.0093 55.9823 60.0093 54.7923C60.0093 53.6023 59.0447 52.6376 57.8547 52.6376C56.6647 52.6376 55.7 53.6023 55.7 54.7923C55.7 55.9823 56.6647 56.947 57.8547 56.947Z" fill="#8CCF4D"/>
<path opacity="0.05" d="M510.065 114.369H86.6733V300.532H510.065V114.369Z" fill="black"/>
<path d="M506.833 115.769H89.9053V297.838H506.833V115.769Z" fill="#3F3D56"/>
<path d="M203.564 162.633C180.671 162.633 162.087 181.217 162.087 204.111C162.087 227.004 180.671 245.588 203.564 245.588C226.457 245.588 245.041 227.004 245.041 204.111C245.041 181.217 226.457 162.633 203.564 162.633ZM210.997 205.134V224.795H196.346V205.134C191.013 201.094 189.936 193.445 193.976 188.112C198.016 182.779 205.665 181.702 210.997 185.742C216.33 189.782 217.408 197.431 213.368 202.764C212.667 203.68 211.859 204.434 210.997 205.134Z" fill="#4587D4"/>
<path opacity="0.05" d="M203.564 162.633C180.671 162.633 162.087 181.217 162.087 204.111C162.087 227.004 180.671 245.588 203.564 245.588C226.457 245.588 245.041 227.004 245.041 204.111C245.041 181.217 226.457 162.633 203.564 162.633ZM210.997 205.134V224.795H196.346V205.134C191.013 201.094 189.936 193.445 193.976 188.112C198.016 182.779 205.665 181.702 210.997 185.742C216.33 189.782 217.408 197.431 213.368 202.764C212.667 203.68 211.859 204.434 210.997 205.134Z" fill="black"/>
<path d="M203.564 150.783C174.099 150.783 150.236 174.646 150.236 204.111C150.236 233.576 174.099 257.438 203.564 257.438C233.029 257.438 256.892 233.576 256.892 204.111C256.892 174.646 232.975 150.783 203.564 150.783ZM213.098 205.403V230.667H194.245V205.403C187.35 200.178 186.003 190.375 191.228 183.534C196.453 176.692 206.257 175.292 213.098 180.517C219.939 185.742 221.34 195.546 216.115 202.387C215.253 203.518 214.229 204.541 213.098 205.403Z" fill="#4587D4"/>
<path d="M451.35 197.108H278.977V215.423H451.35V197.108Z" fill="white"/>
<path d="M451.35 230.505H414.182V248.82H451.35V230.505Z" fill="#4587D4"/>
<path d="M295.945 205.996H292.821L295.622 203.249C295.73 203.141 295.73 202.979 295.622 202.872C295.514 202.764 295.353 202.764 295.245 202.872L292.444 205.619V202.495C292.444 202.333 292.336 202.225 292.174 202.225C292.013 202.225 291.905 202.333 291.905 202.495V205.619L289.158 202.818C289.05 202.71 288.889 202.71 288.781 202.818C288.673 202.925 288.673 203.087 288.781 203.195L291.582 205.942H288.458C288.296 205.942 288.188 206.05 288.188 206.211C288.188 206.373 288.296 206.481 288.458 206.481H291.582L288.781 209.228C288.673 209.336 288.673 209.497 288.781 209.605C288.889 209.713 289.05 209.713 289.158 209.605L291.905 206.858V209.982C291.905 210.144 292.013 210.251 292.174 210.251C292.336 210.251 292.444 210.144 292.444 209.982V206.858L295.245 209.605C295.353 209.713 295.514 209.713 295.622 209.605C295.73 209.497 295.73 209.336 295.622 209.228L292.821 206.481H295.945C296.107 206.481 296.214 206.373 296.214 206.211C296.214 206.104 296.053 205.996 295.945 205.996Z" fill="#4587D4"/>
<path d="M307.257 205.996H304.133L306.934 203.249C307.042 203.141 307.042 202.979 306.934 202.872C306.826 202.764 306.664 202.764 306.557 202.872L303.756 205.619V202.495C303.756 202.333 303.648 202.225 303.486 202.225C303.325 202.225 303.217 202.333 303.217 202.495V205.619L300.47 202.818C300.362 202.71 300.2 202.71 300.093 202.818C299.985 202.925 299.985 203.087 300.093 203.195L302.894 205.942H299.77C299.608 205.942 299.5 206.05 299.5 206.211C299.5 206.373 299.608 206.481 299.77 206.481H302.894L300.093 209.228C299.985 209.336 299.985 209.497 300.093 209.605C300.2 209.713 300.362 209.713 300.47 209.605L303.217 206.858V209.982C303.217 210.144 303.325 210.251 303.486 210.251C303.648 210.251 303.756 210.144 303.756 209.982V206.858L306.557 209.605C306.664 209.713 306.826 209.713 306.934 209.605C307.042 209.497 307.042 209.336 306.934 209.228L304.133 206.481H307.257C307.419 206.481 307.526 206.373 307.526 206.211C307.526 206.104 307.365 205.996 307.257 205.996Z" fill="#4587D4"/>
<path d="M318.569 205.996H315.445L318.246 203.249C318.354 203.141 318.354 202.979 318.246 202.872C318.138 202.764 317.976 202.764 317.869 202.872L315.068 205.619V202.495C315.068 202.333 314.96 202.225 314.798 202.225C314.637 202.225 314.529 202.333 314.529 202.495V205.619L311.782 202.818C311.674 202.71 311.512 202.71 311.405 202.818C311.297 202.925 311.297 203.087 311.405 203.195L314.206 205.942H311.082C310.92 205.942 310.812 206.05 310.812 206.211C310.812 206.373 310.92 206.481 311.082 206.481H314.206L311.405 209.228C311.297 209.336 311.297 209.497 311.405 209.605C311.512 209.713 311.674 209.713 311.782 209.605L314.529 206.858V209.982C314.529 210.144 314.637 210.251 314.798 210.251C314.96 210.251 315.068 210.144 315.068 209.982V206.858L317.869 209.605C317.976 209.713 318.138 209.713 318.246 209.605C318.354 209.497 318.354 209.336 318.246 209.228L315.445 206.481H318.569C318.731 206.481 318.838 206.373 318.838 206.211C318.838 206.104 318.677 205.996 318.569 205.996Z" fill="#4587D4"/>
<path d="M329.881 205.996H326.757L329.558 203.249C329.666 203.141 329.666 202.979 329.558 202.872C329.45 202.764 329.288 202.764 329.181 202.872L326.38 205.619V202.495C326.38 202.333 326.272 202.225 326.11 202.225C325.949 202.225 325.841 202.333 325.841 202.495V205.619L323.094 202.818C322.986 202.71 322.824 202.71 322.717 202.818C322.609 202.925 322.609 203.087 322.717 203.195L325.518 205.942H322.394C322.232 205.942 322.124 206.05 322.124 206.211C322.124 206.373 322.232 206.481 322.394 206.481H325.518L322.717 209.228C322.609 209.336 322.609 209.497 322.717 209.605C322.824 209.713 322.986 209.713 323.094 209.605L325.841 206.858V209.982C325.841 210.144 325.949 210.251 326.11 210.251C326.272 210.251 326.38 210.144 326.38 209.982V206.858L329.181 209.605C329.288 209.713 329.45 209.713 329.558 209.605C329.666 209.497 329.666 209.336 329.558 209.228L326.757 206.481H329.881C330.043 206.481 330.15 206.373 330.15 206.211C330.15 206.104 329.989 205.996 329.881 205.996Z" fill="#4587D4"/>
<path d="M341.193 205.996H338.069L340.87 203.249C340.978 203.141 340.978 202.979 340.87 202.872C340.762 202.764 340.6 202.764 340.493 202.872L337.692 205.619V202.495C337.692 202.333 337.584 202.225 337.422 202.225C337.261 202.225 337.153 202.333 337.153 202.495V205.619L334.406 202.818C334.298 202.71 334.136 202.71 334.029 202.818C333.921 202.925 333.921 203.087 334.029 203.195L336.83 205.942H333.706C333.544 205.942 333.436 206.05 333.436 206.211C333.436 206.373 333.544 206.481 333.706 206.481H336.83L334.029 209.228C333.921 209.336 333.921 209.497 334.029 209.605C334.136 209.713 334.298 209.713 334.406 209.605L337.153 206.858V209.982C337.153 210.144 337.261 210.251 337.422 210.251C337.584 210.251 337.692 210.144 337.692 209.982V206.858L340.493 209.605C340.6 209.713 340.762 209.713 340.87 209.605C340.978 209.497 340.978 209.336 340.87 209.228L338.069 206.481H341.193C341.355 206.481 341.462 206.373 341.462 206.211C341.462 206.104 341.301 205.996 341.193 205.996Z" fill="#4587D4"/>
<path d="M352.505 205.996H349.381L352.182 203.249C352.29 203.141 352.29 202.979 352.182 202.872C352.074 202.764 351.912 202.764 351.805 202.872L349.004 205.619V202.495C349.004 202.333 348.896 202.225 348.734 202.225C348.573 202.225 348.465 202.333 348.465 202.495V205.619L345.718 202.818C345.61 202.71 345.448 202.71 345.341 202.818C345.233 202.925 345.233 203.087 345.341 203.195L348.142 205.942H345.018C344.856 205.942 344.748 206.05 344.748 206.211C344.748 206.373 344.856 206.481 345.018 206.481H348.142L345.341 209.228C345.233 209.336 345.233 209.497 345.341 209.605C345.448 209.713 345.61 209.713 345.718 209.605L348.465 206.858V209.982C348.465 210.144 348.573 210.251 348.734 210.251C348.896 210.251 349.004 210.144 349.004 209.982V206.858L351.805 209.605C351.912 209.713 352.074 209.713 352.182 209.605C352.29 209.497 352.29 209.336 352.182 209.228L349.381 206.481H352.505C352.667 206.481 352.774 206.373 352.774 206.211C352.774 206.104 352.613 205.996 352.505 205.996Z" fill="#4587D4"/>
<path d="M363.817 205.996H360.693L363.494 203.249C363.601 203.141 363.601 202.979 363.494 202.872C363.386 202.764 363.224 202.764 363.117 202.872L360.316 205.619V202.495C360.316 202.333 360.208 202.225 360.046 202.225C359.885 202.225 359.777 202.333 359.777 202.495V205.619L357.03 202.818C356.922 202.71 356.76 202.71 356.653 202.818C356.545 202.925 356.545 203.087 356.653 203.195L359.454 205.942H356.33C356.168 205.942 356.06 206.05 356.06 206.211C356.06 206.373 356.168 206.481 356.33 206.481H359.454L356.653 209.228C356.545 209.336 356.545 209.497 356.653 209.605C356.76 209.713 356.922 209.713 357.03 209.605L359.777 206.858V209.982C359.777 210.144 359.885 210.251 360.046 210.251C360.208 210.251 360.316 210.144 360.316 209.982V206.858L363.117 209.605C363.224 209.713 363.386 209.713 363.494 209.605C363.601 209.497 363.601 209.336 363.494 209.228L360.693 206.481H363.817C363.979 206.481 364.086 206.373 364.086 206.211C364.086 206.104 363.925 205.996 363.817 205.996Z" fill="#4587D4"/>
<path d="M375.129 205.996H372.005L374.806 203.249C374.913 203.141 374.913 202.979 374.806 202.872C374.698 202.764 374.536 202.764 374.429 202.872L371.628 205.619V202.495C371.628 202.333 371.52 202.225 371.358 202.225C371.197 202.225 371.089 202.333 371.089 202.495V205.619L368.342 202.818C368.234 202.71 368.072 202.71 367.965 202.818C367.857 202.925 367.857 203.087 367.965 203.195L370.766 205.942H367.641C367.48 205.942 367.372 206.05 367.372 206.211C367.372 206.373 367.48 206.481 367.641 206.481H370.766L367.965 209.228C367.857 209.336 367.857 209.497 367.965 209.605C368.072 209.713 368.234 209.713 368.342 209.605L371.089 206.858V209.982C371.089 210.144 371.197 210.251 371.358 210.251C371.52 210.251 371.628 210.144 371.628 209.982V206.858L374.429 209.605C374.536 209.713 374.698 209.713 374.806 209.605C374.913 209.497 374.913 209.336 374.806 209.228L372.005 206.481H375.129C375.291 206.481 375.398 206.373 375.398 206.211C375.398 206.104 375.237 205.996 375.129 205.996Z" fill="#4587D4"/>
<path d="M386.441 205.996H383.317L386.118 203.249C386.225 203.141 386.225 202.979 386.118 202.872C386.01 202.764 385.848 202.764 385.741 202.872L382.94 205.619V202.495C382.94 202.333 382.832 202.225 382.67 202.225C382.509 202.225 382.401 202.333 382.401 202.495V205.619L379.654 202.818C379.546 202.71 379.384 202.71 379.277 202.818C379.169 202.925 379.169 203.087 379.277 203.195L382.078 205.942H378.953C378.792 205.942 378.684 206.05 378.684 206.211C378.684 206.373 378.792 206.481 378.953 206.481H382.078L379.277 209.228C379.169 209.336 379.169 209.497 379.277 209.605C379.384 209.713 379.546 209.713 379.654 209.605L382.401 206.858V209.982C382.401 210.144 382.509 210.251 382.67 210.251C382.832 210.251 382.94 210.144 382.94 209.982V206.858L385.741 209.605C385.848 209.713 386.01 209.713 386.118 209.605C386.225 209.497 386.225 209.336 386.118 209.228L383.317 206.481H386.441C386.603 206.481 386.71 206.373 386.71 206.211C386.71 206.104 386.549 205.996 386.441 205.996Z" fill="#4587D4"/>
<path d="M397.753 205.996H394.629L397.43 203.249C397.537 203.141 397.537 202.979 397.43 202.872C397.322 202.764 397.16 202.764 397.053 202.872L394.252 205.619V202.495C394.252 202.333 394.144 202.225 393.982 202.225C393.821 202.225 393.713 202.333 393.713 202.495V205.619L390.966 202.818C390.858 202.71 390.696 202.71 390.589 202.818C390.481 202.925 390.481 203.087 390.589 203.195L393.39 205.942H390.265C390.104 205.942 389.996 206.05 389.996 206.211C389.996 206.373 390.104 206.481 390.265 206.481H393.39L390.589 209.228C390.481 209.336 390.481 209.497 390.589 209.605C390.696 209.713 390.858 209.713 390.966 209.605L393.713 206.858V209.982C393.713 210.144 393.821 210.251 393.982 210.251C394.144 210.251 394.252 210.144 394.252 209.982V206.858L397.053 209.605C397.16 209.713 397.322 209.713 397.43 209.605C397.537 209.497 397.537 209.336 397.43 209.228L394.629 206.481H397.753C397.915 206.481 398.022 206.373 398.022 206.211C398.022 206.104 397.861 205.996 397.753 205.996Z" fill="#4587D4"/>
<path d="M409.065 205.996H405.941L408.742 203.249C408.849 203.141 408.849 202.979 408.742 202.872C408.634 202.764 408.472 202.764 408.365 202.872L405.564 205.619V202.495C405.564 202.333 405.456 202.225 405.294 202.225C405.133 202.225 405.025 202.333 405.025 202.495V205.619L402.278 202.818C402.17 202.71 402.008 202.71 401.901 202.818C401.793 202.925 401.793 203.087 401.901 203.195L404.702 205.942H401.577C401.416 205.942 401.308 206.05 401.308 206.211C401.308 206.373 401.416 206.481 401.577 206.481H404.702L401.901 209.228C401.793 209.336 401.793 209.497 401.901 209.605C402.008 209.713 402.17 209.713 402.278 209.605L405.025 206.858V209.982C405.025 210.144 405.133 210.251 405.294 210.251C405.456 210.251 405.564 210.144 405.564 209.982V206.858L408.365 209.605C408.472 209.713 408.634 209.713 408.742 209.605C408.849 209.497 408.849 209.336 408.742 209.228L405.941 206.481H409.065C409.227 206.481 409.334 206.373 409.334 206.211C409.334 206.104 409.173 205.996 409.065 205.996Z" fill="#4587D4"/>
</svg>
