<svg width="80" height="67" viewBox="0 0 80 67" fill="none" xmlns="http://www.w3.org/2000/svg">
<g clip-path="url(#clip0)">
<path fill-rule="evenodd" clip-rule="evenodd" d="M31.5179 35.0866C31.6544 34.8146 32.1546 34.588 32.9733 34.4066C33.7919 34.2253 34.838 34.1347 36.1569 34.0893C37.4758 34.044 38.9312 34.044 40.614 34.1347C42.2513 34.2253 44.025 34.3613 45.8897 34.5426C48.3456 34.8146 50.5287 35.0866 52.4389 35.4493C54.3036 35.8119 55.759 36.1746 56.7595 36.5372C57.7601 36.9452 58.1694 37.3079 57.9875 37.6252C57.8056 37.8518 57.3508 38.0785 56.4866 38.2598C55.668 38.4411 54.6219 38.5318 53.3485 38.6225C52.0296 38.6678 50.5742 38.7131 48.9369 38.6678C47.2996 38.6225 45.5713 38.5318 43.7066 38.3505C41.2507 38.1238 39.1131 37.8518 37.203 37.4892C35.2928 37.1265 33.8374 36.7185 32.8368 36.3106C31.8363 35.8573 31.3815 35.4493 31.5179 35.0866ZM26.8789 37.6705L21.2848 39.5291L28.7436 40.6624L34.7015 39.7558C35.2473 39.8464 36.0205 39.9824 36.9756 40.0278C37.9761 40.1184 39.0676 40.2091 40.2956 40.2997C41.5236 40.3904 42.797 40.4811 44.116 40.5264C45.4349 40.5717 46.7084 40.6171 47.9363 40.6171C49.1643 40.6624 50.2558 40.6624 51.2109 40.6171C52.8027 40.5717 54.3491 40.4811 55.9409 40.3904C57.5327 40.2544 58.9426 40.1184 60.216 39.8918C61.4895 39.6651 62.49 39.3931 63.1723 39.0758C63.8545 38.7131 64.0819 38.3052 63.8545 37.8065C63.6725 37.3079 62.8539 36.7186 61.444 36.0386C64.0819 36.5372 65.8556 37.1265 66.7652 37.7612C67.6748 38.3958 67.6748 39.0305 66.8107 39.6651C65.9466 40.2997 64.1728 40.7984 61.4895 41.2064L67.2655 42.929L70.9949 42.0677L68.0387 40.7984C69.494 40.5717 70.631 40.3451 71.5406 40.0278L77.2712 40.4357L78.4082 39.7104L73.4053 38.9398C73.5418 38.7131 73.4963 38.4411 73.3144 38.2145L77.5441 38.0332L76.0432 37.3985L71.6316 37.1265C70.9949 36.8545 70.1762 36.5372 69.2666 36.2652L70.9949 35.8573L68.7209 35.3133L65.2644 35.2226C63.8999 34.9053 62.4446 34.6333 60.7618 34.316L60.8528 33.8173L56.9869 33.1827L55.6225 33.5453C54.44 33.364 53.2121 33.1827 51.9386 33.0467C51.4838 33.0014 51.0745 32.956 50.6651 32.9107L48.8005 32.0947L43.8431 31.5508L43.2064 32.0494C43.0699 32.0494 42.888 32.0041 42.7516 32.0041C41.2962 31.9134 39.8863 31.8227 38.5219 31.7774L34.1558 30.4628L29.5623 30.5081L31.5179 31.8227C30.3809 31.8681 29.3349 31.9587 28.3798 32.0494L22.6038 31.0521L18.7834 31.7321L23.7408 33.228C23.3769 33.4093 23.104 33.636 22.9221 33.8627C22.8766 33.908 22.8312 33.9987 22.7857 34.0893L15.9181 34.3613L15.7817 35.8119L23.9682 36.2199C24.6504 36.7186 25.6055 37.2172 26.8789 37.6705ZM3.50922e-06 34.4973C-0.136438 35.2679 0.318366 36.0386 1.31893 36.8092C2.3195 37.5345 3.82036 38.2598 5.77601 38.8945C7.73167 39.5291 10.0512 40.1184 12.78 40.6171C15.5088 41.1157 18.556 41.569 21.8306 41.8863C25.1507 42.2037 28.6526 42.4303 32.382 42.521C35.884 42.5663 39.2951 42.5663 42.5242 42.4757C45.7533 42.3397 48.8005 42.1583 51.6202 41.9317C54.44 41.6597 56.9414 41.3877 59.17 40.9797C61.3985 40.6171 63.2177 40.2091 64.6731 39.8011C63.2177 40.1637 61.444 40.5264 59.3519 40.7984C57.2598 41.0704 54.8493 41.297 52.2115 41.4784C49.5736 41.6597 46.7993 41.7503 43.7521 41.7957C40.7504 41.841 37.6123 41.7957 34.3832 41.705C29.9716 41.4784 25.9238 41.1157 22.2399 40.5717C18.5105 40.0278 15.2814 39.3931 12.5071 38.6678C9.77829 37.9425 7.68619 37.1265 6.23082 36.2199C4.82092 35.3586 4.1842 34.4973 4.4116 33.5907C4.59352 33.0014 5.09381 32.5027 6.00341 32.0494C6.86754 31.5961 8.05003 31.1881 9.55088 30.8708C11.0517 30.5535 12.78 30.3268 14.7356 30.1455C11.8704 30.3268 9.32348 30.5988 7.1859 31.0068C5.04833 31.4148 3.32007 31.9134 2.0921 32.5027C0.864131 33.092 0.181925 33.7267 3.50922e-06 34.4973ZM3.09267 40.1637C5.59409 41.025 8.50484 41.7504 11.8704 42.2943C15.2359 42.8383 18.8744 43.2463 22.8312 43.5183C26.7879 43.7449 30.8357 43.8809 35.0654 43.7903C39.2496 43.7449 43.4338 43.6089 47.618 43.2916C51.7567 42.9743 55.7589 42.5663 59.5338 41.977C57.9875 42.385 55.9409 42.7476 53.394 43.1556C50.8471 43.5636 47.9818 43.9263 44.7982 44.2436C41.5691 44.5609 38.2035 44.8329 34.6561 45.0142C31.1086 45.1955 27.5611 45.2862 24.0136 45.2409C20.4662 45.2409 17.1006 45.0596 13.826 44.7422C10.5969 44.4249 7.68619 43.9716 5.09381 43.337L3.09267 40.1637Z" fill="#E6E6E6"/>
<path fill-rule="evenodd" clip-rule="evenodd" d="M38.158 13.7355C38.4764 13.1008 39.0676 12.6022 39.9318 12.3302C40.7959 12.0582 41.8419 11.9222 43.1609 12.0129C44.4343 12.1035 45.8442 12.3302 47.3451 12.7835C48.8914 13.1915 50.4377 13.7808 52.075 14.5514C54.2581 15.594 56.0773 16.7727 57.6236 17.9966C59.17 19.2659 60.307 20.4899 60.9892 21.7138C61.7169 22.8924 61.8533 23.9351 61.4895 24.8417C61.1711 25.4763 60.5799 25.975 59.6703 26.247C58.8061 26.519 57.7146 26.6096 56.4866 26.519C55.2132 26.4283 53.8033 26.2016 52.3024 25.7936C50.8016 25.3857 49.2098 24.7964 47.5725 23.9804C45.3894 22.9378 43.5247 21.8045 42.0239 20.5352C40.4775 19.2659 39.3405 18.042 38.6583 16.8633C37.9761 15.6847 37.7942 14.6421 38.158 13.7355ZM32.1546 19.1299L25.7419 22.2578L32.1091 26.4283L38.2035 25.6577C38.7948 26.111 39.6589 26.6549 40.8414 27.2896C42.0239 27.8789 43.3428 28.5135 44.7982 29.1482C46.2535 29.7375 47.7544 30.2815 49.2098 30.7348C50.6651 31.1881 51.9841 31.5508 53.1211 31.7321C54.6219 31.9587 56.1683 32.0947 57.7601 32.1854C59.3064 32.2307 60.7618 32.0494 62.1262 31.7321C63.4906 31.4148 64.5821 30.8254 65.4463 30.0095C66.3104 29.1935 66.8107 28.0149 66.9471 26.5643C67.0836 25.0683 66.7197 23.2097 65.8556 20.9432C67.4929 22.3938 68.6299 23.8444 69.2666 25.3857C69.9033 26.9269 70.0853 28.3775 69.7669 29.7828C69.4485 31.1881 68.7209 32.4121 67.4929 33.4547C66.2649 34.4973 64.6276 35.2226 62.5355 35.7213L66.8562 42.113L70.9039 40.7077L68.9937 36.0839C70.4946 35.8119 71.768 35.3133 72.8141 34.6786L77.9079 37.3532L79.4542 35.3586L75.3155 31.7774C75.5884 31.0521 75.7248 30.2815 75.7248 29.5108L79.8636 29.7828L78.9085 27.4256L74.9517 25.7936C74.5423 24.7964 73.9966 23.7991 73.2689 22.8018L75.0426 21.7591L73.2689 19.8099L70.0398 18.9939C68.9483 17.906 67.7658 16.818 66.4014 15.7754L66.8107 14.2341L63.5816 12.0129L62.0352 12.7835C61.0347 12.1489 59.9431 11.5595 58.8971 11.0156C58.4878 10.7889 58.1239 10.6076 57.8056 10.4263L56.5321 8.02368L52.166 6.11976L51.1654 7.79703C51.029 7.7517 50.8925 7.70636 50.7561 7.66103C49.4372 7.25305 48.1637 6.93573 46.8903 6.66374L43.5247 3.03721L39.1131 2.5839L40.1592 5.8931C39.0222 5.8931 37.9761 5.98377 37.021 6.11976L32.1546 3.17321L28.1069 4.3065L31.8817 8.341C31.4269 8.70366 31.0631 9.15697 30.6992 9.70095C30.6083 9.83695 30.5173 9.97294 30.4718 10.1089L23.7862 9.70095L22.7402 12.9648L30.2444 15.2767C30.6538 16.4554 31.2905 17.77 32.1546 19.1299ZM8.68674 7.43437C7.95905 9.42896 8.09549 11.5595 9.05058 13.7808C10.0057 16.002 11.643 18.2686 14.0079 20.4899C16.3729 22.6658 19.2837 24.751 22.7402 26.7003C26.1967 28.6495 30.0625 30.3268 34.3832 31.7321C37.6577 32.7747 40.8414 33.5907 43.9795 34.0893C47.1177 34.6333 50.0739 34.9053 52.8937 34.9506C55.668 34.9506 58.2604 34.7693 60.5344 34.316C62.8539 33.8627 64.8095 33.1827 66.4923 32.2307C64.9005 32.956 62.9903 33.5 60.8073 33.772C58.6697 34.0893 56.3047 34.1347 53.7123 33.9533C51.1199 33.772 48.4366 33.4093 45.5713 32.7747C42.7061 32.1401 39.7953 31.2788 36.8391 30.1455C32.8368 28.6042 29.2439 26.8363 26.0602 24.8417C22.8766 22.8471 20.1933 20.7618 18.0557 18.5859C15.9181 16.3647 14.4627 14.1888 13.5986 12.0582C12.78 9.92761 12.7345 7.93302 13.4622 6.11976C13.9625 4.94114 14.7811 3.94385 15.8272 3.08255C16.9187 2.22125 18.2831 1.54127 19.8749 1.04263C21.4667 0.543981 23.2859 0.22666 25.2416 0.0453339C22.4218 0.0906654 19.8294 0.407986 17.5554 0.997296C15.2814 1.58661 13.3712 2.40257 11.8249 3.4452C10.3695 4.57849 9.27798 5.8931 8.68674 7.43437ZM8.23193 19.7192C10.0511 22.1671 12.3707 24.4337 15.1904 26.4736C18.0102 28.5135 21.1938 30.2815 24.7868 31.8227C28.3343 33.364 32.1091 34.6333 36.0659 35.5853C40.0227 36.5372 44.0705 37.2172 48.1637 37.4892C52.257 37.8065 56.2592 37.7612 60.1705 37.3532C58.7152 37.8972 56.896 38.3051 54.7584 38.6225C52.6208 38.9398 50.2103 39.0758 47.5725 39.1211C44.9346 39.1665 42.1603 39.0305 39.295 38.7585C36.3843 38.5318 33.4736 38.0785 30.5628 37.4892C27.6521 36.8999 24.7868 36.0839 22.058 35.1319C19.3291 34.1346 16.7822 32.956 14.3718 31.5961C12.0068 30.2361 10.0057 28.6042 8.27741 26.7909V19.7192" fill="#3765AF"/>
<path d="M29.6987 51.134C29.6987 50.7713 29.6077 50.4994 29.3803 50.2274C29.1529 49.9554 28.9255 49.7741 28.5616 49.6834C28.2433 49.5927 27.8794 49.6381 27.6066 49.7287C27.2882 49.8647 27.0608 50.046 26.8789 50.3634L20.0568 62.1949L13.2348 50.3634C13.1438 50.2274 13.0528 50.0914 12.9164 50.0007C12.78 49.9101 12.6435 49.8194 12.5071 49.7741C12.3706 49.7287 12.1887 49.6834 12.0523 49.6834C11.8704 49.6834 11.7339 49.6834 11.552 49.7287C11.2336 49.8194 10.9607 50.0007 10.7333 50.2727C10.5514 50.5447 10.415 50.862 10.415 51.1793V66.4107H13.4167V56.5738L18.7834 65.9121C18.9198 66.1387 19.1017 66.3201 19.3291 66.4561C19.5565 66.592 19.7839 66.6374 20.0568 66.6374C20.3297 66.6374 20.5571 66.592 20.83 66.4561C21.0574 66.3201 21.2393 66.1387 21.3757 65.9121L26.697 56.5738V66.4107H29.7441V51.134H29.6987ZM49.4371 51.3607C49.4371 51.134 49.3917 50.9527 49.3007 50.7713C49.2097 50.59 49.1188 50.4087 48.9823 50.2727C48.8459 50.1367 48.664 50.046 48.4821 49.9554C48.3001 49.8647 48.1182 49.8194 47.8908 49.8194H41.1597C39.9772 49.8194 38.8857 50.0007 37.8396 50.4087C36.8391 50.8167 35.9749 51.406 35.2018 52.1313C34.4741 52.8566 33.8829 53.7179 33.4735 54.7605C33.0642 55.7578 32.8368 56.8911 32.8368 58.0697V66.3201H35.8385V62.2855H46.39V66.3201H49.3917V51.3607H49.4371ZM35.884 58.1151C35.884 57.2991 36.0204 56.5738 36.2478 55.9845C36.4752 55.3952 36.7936 54.8965 37.1574 54.5339C37.5213 54.1259 37.9306 53.8539 38.3399 53.6272C38.7493 53.4006 39.1586 53.2192 39.5679 53.1286C39.9772 53.0379 40.2956 52.9473 40.6139 52.9473C40.9323 52.9019 41.1142 52.9019 41.2052 52.9019H46.4809V59.3843H35.884V58.1151ZM68.6299 59.9283C68.4934 59.475 68.266 59.067 68.0386 58.7044C67.7657 58.3417 67.4928 58.0244 67.1745 57.7977C66.8561 57.5257 66.4923 57.3444 66.1739 57.1631C65.8101 56.9818 65.4462 56.8911 65.0824 56.8004C64.7185 56.7098 64.4002 56.6644 64.0363 56.6644H63.9909H57.0778C56.4866 56.6644 56.0773 56.4831 55.7589 56.1658C55.4405 55.8485 55.2586 55.3952 55.2586 54.8059C55.2586 54.2165 55.4405 53.7632 55.7589 53.4459C56.0773 53.0833 56.5321 52.9473 57.0778 52.9473H67.3109V49.8647H57.0778C56.5776 49.8647 56.0773 49.9554 55.486 50.1367C54.9403 50.318 54.3945 50.59 53.9397 50.998C53.4394 51.406 53.0756 51.9046 52.7572 52.4939C52.4388 53.1286 52.2569 53.8539 52.2569 54.7605C52.2569 55.6672 52.4388 56.4378 52.7572 57.0271C53.0756 57.6617 53.4849 58.1604 53.9397 58.523C54.44 58.8857 54.9403 59.203 55.486 59.339C56.0318 59.5203 56.5776 59.611 57.0778 59.611H63.9909C64.2637 59.611 64.5366 59.6563 64.764 59.747C64.9914 59.8377 65.1733 59.9736 65.3553 60.155C65.4917 60.3363 65.6282 60.5176 65.7191 60.7443C65.8101 60.9709 65.8556 61.2429 65.8556 61.5149C65.8556 62.1042 65.6736 62.5575 65.3553 62.8749C65.0369 63.1922 64.5821 63.3735 63.9909 63.3735H52.3934V66.3654H63.9909C64.3092 66.3654 64.6731 66.3201 65.0369 66.2294C65.4008 66.1387 65.7646 66.0481 66.1284 65.8667C66.4923 65.6854 66.8106 65.5041 67.1745 65.2321C67.4928 64.9601 67.8112 64.6881 68.0386 64.3255C68.266 63.9628 68.4934 63.5548 68.6299 63.0562C68.7663 62.5575 68.8573 62.0589 68.8573 61.4696C68.8573 60.9256 68.7663 60.3816 68.6299 59.9283Z" fill="#3765AF"/>
</g>
<defs>
<clipPath id="clip0">
<rect width="80" height="67" fill="white"/>
</clipPath>
</defs>
</svg>
